<svg id="visual" viewBox="0 0 1920 1080" width="1920" height="1080" xmlns="http://www.w3.org/2000/svg" xmlns:xlink="http://www.w3.org/1999/xlink" version="1.1"><rect x="0" y="0" width="1920" height="1080" fill="#0f6053"></rect><path d="M0 497L45.7 513.2C91.3 529.3 182.7 561.7 274.2 577.5C365.7 593.3 457.3 592.7 548.8 581C640.3 569.3 731.7 546.7 823 549C914.3 551.3 1005.7 578.7 1097 571.7C1188.3 564.7 1279.7 523.3 1371.2 502.2C1462.7 481 1554.3 480 1645.8 494.3C1737.3 508.7 1828.7 538.3 1874.3 553.2L1920 568L1920 1081L1874.3 1081C1828.7 1081 1737.3 1081 1645.8 1081C1554.3 1081 1462.7 1081 1371.2 1081C1279.7 1081 1188.3 1081 1097 1081C1005.7 1081 914.3 1081 823 1081C731.7 1081 640.3 1081 548.8 1081C457.3 1081 365.7 1081 274.2 1081C182.7 1081 91.3 1081 45.7 1081L0 1081Z" fill="#0f6053"></path><path d="M0 638L45.7 647.2C91.3 656.3 182.7 674.7 274.2 659C365.7 643.3 457.3 593.7 548.8 589.7C640.3 585.7 731.7 627.3 823 633C914.3 638.7 1005.7 608.3 1097 589.5C1188.3 570.7 1279.7 563.3 1371.2 578.3C1462.7 593.3 1554.3 630.7 1645.8 640.5C1737.3 650.3 1828.7 632.7 1874.3 623.8L1920 615L1920 1081L1874.3 1081C1828.7 1081 1737.3 1081 1645.8 1081C1554.3 1081 1462.7 1081 1371.2 1081C1279.7 1081 1188.3 1081 1097 1081C1005.7 1081 914.3 1081 823 1081C731.7 1081 640.3 1081 548.8 1081C457.3 1081 365.7 1081 274.2 1081C182.7 1081 91.3 1081 45.7 1081L0 1081Z" fill="#13594c"></path><path d="M0 696L45.7 679.8C91.3 663.7 182.7 631.3 274.2 626.3C365.7 621.3 457.3 643.7 548.8 638.7C640.3 633.7 731.7 601.3 823 607C914.3 612.7 1005.7 656.3 1097 681.2C1188.3 706 1279.7 712 1371.2 697.8C1462.7 683.7 1554.3 649.3 1645.8 626.3C1737.3 603.3 1828.7 591.7 1874.3 585.8L1920 580L1920 1081L1874.3 1081C1828.7 1081 1737.3 1081 1645.8 1081C1554.3 1081 1462.7 1081 1371.2 1081C1279.7 1081 1188.3 1081 1097 1081C1005.7 1081 914.3 1081 823 1081C731.7 1081 640.3 1081 548.8 1081C457.3 1081 365.7 1081 274.2 1081C182.7 1081 91.3 1081 45.7 1081L0 1081Z" fill="#155246"></path><path d="M0 685L45.7 678.3C91.3 671.7 182.7 658.3 274.2 675.3C365.7 692.3 457.3 739.7 548.8 755.2C640.3 770.7 731.7 754.3 823 732C914.3 709.7 1005.7 681.3 1097 678.3C1188.3 675.3 1279.7 697.7 1371.2 720.2C1462.7 742.7 1554.3 765.3 1645.8 775.7C1737.3 786 1828.7 784 1874.3 783L1920 782L1920 1081L1874.3 1081C1828.7 1081 1737.3 1081 1645.8 1081C1554.3 1081 1462.7 1081 1371.2 1081C1279.7 1081 1188.3 1081 1097 1081C1005.7 1081 914.3 1081 823 1081C731.7 1081 640.3 1081 548.8 1081C457.3 1081 365.7 1081 274.2 1081C182.7 1081 91.3 1081 45.7 1081L0 1081Z" fill="#164b3f"></path><path d="M0 708L45.7 715.7C91.3 723.3 182.7 738.7 274.2 753C365.7 767.3 457.3 780.7 548.8 784C640.3 787.3 731.7 780.7 823 783.2C914.3 785.7 1005.7 797.3 1097 798.7C1188.3 800 1279.7 791 1371.2 777.3C1462.7 763.7 1554.3 745.3 1645.8 748.7C1737.3 752 1828.7 777 1874.3 789.5L1920 802L1920 1081L1874.3 1081C1828.7 1081 1737.3 1081 1645.8 1081C1554.3 1081 1462.7 1081 1371.2 1081C1279.7 1081 1188.3 1081 1097 1081C1005.7 1081 914.3 1081 823 1081C731.7 1081 640.3 1081 548.8 1081C457.3 1081 365.7 1081 274.2 1081C182.7 1081 91.3 1081 45.7 1081L0 1081Z" fill="#174439"></path><path d="M0 787L45.7 785.3C91.3 783.7 182.7 780.3 274.2 794.2C365.7 808 457.3 839 548.8 853C640.3 867 731.7 864 823 868.5C914.3 873 1005.7 885 1097 885.5C1188.3 886 1279.7 875 1371.2 853.5C1462.7 832 1554.3 800 1645.8 805C1737.3 810 1828.7 852 1874.3 873L1920 894L1920 1081L1874.3 1081C1828.7 1081 1737.3 1081 1645.8 1081C1554.3 1081 1462.7 1081 1371.2 1081C1279.7 1081 1188.3 1081 1097 1081C1005.7 1081 914.3 1081 823 1081C731.7 1081 640.3 1081 548.8 1081C457.3 1081 365.7 1081 274.2 1081C182.7 1081 91.3 1081 45.7 1081L0 1081Z" fill="#173d33"></path><path d="M0 869L45.7 870C91.3 871 182.7 873 274.2 885.7C365.7 898.3 457.3 921.7 548.8 931.5C640.3 941.3 731.7 937.7 823 926.2C914.3 914.7 1005.7 895.3 1097 893C1188.3 890.7 1279.7 905.3 1371.2 908.7C1462.7 912 1554.3 904 1645.8 899.8C1737.3 895.7 1828.7 895.3 1874.3 895.2L1920 895L1920 1081L1874.3 1081C1828.7 1081 1737.3 1081 1645.8 1081C1554.3 1081 1462.7 1081 1371.2 1081C1279.7 1081 1188.3 1081 1097 1081C1005.7 1081 914.3 1081 823 1081C731.7 1081 640.3 1081 548.8 1081C457.3 1081 365.7 1081 274.2 1081C182.7 1081 91.3 1081 45.7 1081L0 1081Z" fill="#16362d"></path><path d="M0 938L45.7 940.7C91.3 943.3 182.7 948.7 274.2 956C365.7 963.3 457.3 972.7 548.8 972.3C640.3 972 731.7 962 823 950.8C914.3 939.7 1005.7 927.3 1097 920.7C1188.3 914 1279.7 913 1371.2 915.7C1462.7 918.3 1554.3 924.7 1645.8 927.8C1737.3 931 1828.7 931 1874.3 931L1920 931L1920 1081L1874.3 1081C1828.7 1081 1737.3 1081 1645.8 1081C1554.3 1081 1462.7 1081 1371.2 1081C1279.7 1081 1188.3 1081 1097 1081C1005.7 1081 914.3 1081 823 1081C731.7 1081 640.3 1081 548.8 1081C457.3 1081 365.7 1081 274.2 1081C182.7 1081 91.3 1081 45.7 1081L0 1081Z" fill="#153027"></path><path d="M0 991L45.7 994C91.3 997 182.7 1003 274.2 1007.8C365.7 1012.7 457.3 1016.3 548.8 1009.2C640.3 1002 731.7 984 823 978.5C914.3 973 1005.7 980 1097 989.5C1188.3 999 1279.7 1011 1371.2 1016.5C1462.7 1022 1554.3 1021 1645.8 1012.8C1737.3 1004.7 1828.7 989.3 1874.3 981.7L1920 974L1920 1081L1874.3 1081C1828.7 1081 1737.3 1081 1645.8 1081C1554.3 1081 1462.7 1081 1371.2 1081C1279.7 1081 1188.3 1081 1097 1081C1005.7 1081 914.3 1081 823 1081C731.7 1081 640.3 1081 548.8 1081C457.3 1081 365.7 1081 274.2 1081C182.7 1081 91.3 1081 45.7 1081L0 1081Z" fill="#142922"></path></svg>